<?xml version="1.0" encoding="UTF-8" standalone="no"?>
<svg xmlns="http://www.w3.org/2000/svg" version="1.2" baseProfile="tiny" viewBox="0 0 512 512">
<path fill="#6db33f" d="
  M 51.26 350.74
  C -1.20 219.05 78.51 67.64 220.25 43.98
  C 287.95 32.67 356.30 53.97 406.05 101.21
  Q 407.01 102.12 408.12 102.86
  Q 408.56 103.15 408.98 102.84
  C 412.74 100.13 416.41 97.42 420.49 98.49
  C 425.48 99.81 419.33 109.67 418.25 112.60
  Q 418.06 113.13 418.44 113.55
  Q 467.80 168.76 475.68 241.31
  C 487.19 347.42 423.14 449.64 319.88 481.28
  C 226.40 509.92 126.60 473.14 72.88 391.65
  Q 69.47 386.48 66.05 381.28
  Q 65.78 380.86 65.28 380.78
  Q 38.10 376.30 30.52 375.37
  C 23.45 374.50 29.42 366.82 32.29 364.80
  Q 41.60 358.24 51.00 351.61
  A 0.74 0.73 61.9 0 0 51.26 350.74
  Z"
/>
<path fill="#ffffff" d="
  M 166.39 360.98
  C 158.32 369.06 148.07 380.01 140.17 387.42
  C 138.75 388.75 56.94 375.13 48.14 373.74
  C 44.60 373.19 39.29 372.02 34.68 371.80
  Q 32.51 371.70 32.10 369.73
  Q 32.01 369.25 32.33 368.88
  Q 34.52 366.36 36.05 365.30
  Q 224.03 234.29 412.00 103.27
  C 414.50 101.53 416.25 100.15 418.78 101.05
  A 1.20 1.19 -68.9 0 1 419.48 102.65
  Q 354.10 254.59 288.93 405.93
  C 287.09 410.21 282.77 410.47 278.36 409.78
  Q 231.40 402.44 184.45 395.08
  Q 183.92 395.00 184.25 394.57
  Q 246.98 313.25 309.68 231.94
  Q 311.68 229.35 311.20 226.59
  Q 311.10 226.05 310.63 225.80
  C 306.38 223.47 300.88 226.30 297.84 229.35
  Q 232.14 295.18 166.39 360.98
  Z"
/>
</svg>
